0
SECTION
2
HEADER
9
$INSUNITS
70
4
9
$ACADVER
1
AC1014
9
$HANDSEED
5
FFFF
0
ENDSEC
0
SECTION
2
TABLES
0
TABLE
2
VPORT
5
8
100
AcDbSymbolTable
0
ENDTAB
0
TABLE
2
LTYPE
5
5
100
AcDbSymbolTable
0
LTYPE
5
14
100
AcDbSymbolTableRecord
100
AcDbLinetypeTableRecord
2
BYBLOCK
70
0
0
LTYPE
5
15
100
AcDbSymbolTableRecord
100
AcDbLinetypeTableRecord
2
BYLAYER
70
0
0
ENDTAB
0
TABLE
2
LAYER
5
2
100
AcDbSymbolTable
70
2
0
LAYER
5
50
100
AcDbSymbolTableRecord
100
AcDbLayerTableRecord
2
0
70
0
6
CONTINUOUS
0
ENDTAB
0
TABLE
2
STYLE
5
3
100
AcDbSymbolTable
70
1
0
STYLE
5
11
100
AcDbSymbolTableRecord
100
AcDbTextStyleTableRecord
2
STANDARD
70
0
0
ENDTAB
0
TABLE
2
VIEW
5
6
100
AcDbSymbolTable
70
0
0
ENDTAB
0
TABLE
2
UCS
5
7
100
AcDbSymbolTable
70
0
0
ENDTAB
0
TABLE
2
APPID
5
9
100
AcDbSymbolTable
70
2
0
APPID
5
12
100
AcDbSymbolTableRecord
100
AcDbRegAppTableRecord
2
ACAD
70
0
0
ENDTAB
0
TABLE
2
DIMSTYLE
5
A
100
AcDbSymbolTable
70
1
0
ENDTAB
0
TABLE
2
BLOCK_RECORD
5
1
100
AcDbSymbolTable
70
1
0
BLOCK_RECORD
5
1F
100
AcDbSymbolTableRecord
100
AcDbBlockTableRecord
2
*MODEL_SPACE
0
BLOCK_RECORD
5
1B
100
AcDbSymbolTableRecord
100
AcDbBlockTableRecord
2
*PAPER_SPACE
0
ENDTAB
0
ENDSEC
0
SECTION
2
BLOCKS
0
BLOCK
5
20
100
AcDbEntity
100
AcDbBlockBegin
2
*MODEL_SPACE
0
ENDBLK
5
21
100
AcDbEntity
100
AcDbBlockEnd
0
BLOCK
5
1C
100
AcDbEntity
100
AcDbBlockBegin
2
*PAPER_SPACE
0
ENDBLK
5
1D
100
AcDbEntity
100
AcDbBlockEnd
0
ENDSEC
0
SECTION
2
ENTITIES
0
CIRCLE
5
100
100
AcDbEntity
8
0
100
AcDbCircle
10
263.24058835866026
20
-58.905430065430124
30
0
40
2.5999999999999979
0
CIRCLE
5
101
100
AcDbEntity
8
0
100
AcDbCircle
10
400.74058835866089
20
-207.96483758302202
30
0
40
1.6510000000000247
0
CIRCLE
5
102
100
AcDbEntity
8
0
100
AcDbCircle
10
455.24058835866015
20
141.09456993457016
30
0
40
2.5999999999999979
0
CIRCLE
5
103
100
AcDbEntity
8
0
100
AcDbCircle
10
182.36558835866026
20
151.7207713185779
30
0
40
1.6509999999999891
0
LWPOLYLINE
5
104
100
AcDbEntity
8
0
100
AcDbPolyline
90
8
70
1
43
0.0
10
317.89058835866041
20
142.26956993457193
42
-0.41421356237309398
10
297.89058835866035
20
162.26956993457236
10
297.8905883586603
20
177.26956993457208
42
-0.41421356237312001
10
307.8905883586603
20
187.26956993457185
10
397.89058835866024
20
187.26956993457236
42
-0.41421356237309709
10
407.8905883586603
20
177.26956993457236
10
407.89058835866035
20
162.26956993457236
42
-0.41421356237309087
10
387.89058835866047
20
142.26956993457213
0
CIRCLE
5
105
100
AcDbEntity
8
0
100
AcDbCircle
10
285.24058835866043
20
-158.90543006542998
30
0
40
2.5999999999999979
0
CIRCLE
5
106
100
AcDbEntity
8
0
100
AcDbCircle
10
182.36558835866046
20
56.720771318577619
30
0
40
1.6509999999999891
0
CIRCLE
5
107
100
AcDbEntity
8
0
100
AcDbCircle
10
371.52052432839287
20
204.09456993457127
30
0
40
1.650999999999998
0
CIRCLE
5
108
100
AcDbEntity
8
0
100
AcDbCircle
10
263.2405883586606
20
-158.90543006542899
30
0
40
2.5999999999999979
0
CIRCLE
5
109
100
AcDbEntity
8
0
100
AcDbCircle
10
285.24058835866003
20
41.094569934570018
30
0
40
2.5999999999999979
0
CIRCLE
5
110
100
AcDbEntity
8
0
100
AcDbCircle
10
285.2405883586602
20
-58.90543006542984
30
0
40
2.5999999999999979
0
CIRCLE
5
111
100
AcDbEntity
8
0
100
AcDbCircle
10
285.24058835865981
20
141.09456993457016
30
0
40
2.5999999999999979
0
CIRCLE
5
112
100
AcDbEntity
8
0
100
AcDbCircle
10
317.24058835865998
20
235.76956993457145
30
0
40
1.7499999999999847
0
CIRCLE
5
113
100
AcDbEntity
8
0
100
AcDbCircle
10
263.24058835866009
20
41.094569934569876
30
0
40
2.5999999999999979
0
CIRCLE
5
114
100
AcDbEntity
8
0
100
AcDbCircle
10
455.24058835866094
20
-158.90543006542998
30
0
40
2.5999999999999979
0
CIRCLE
5
115
100
AcDbEntity
8
0
100
AcDbCircle
10
261.05308835866094
20
-205.83720758523242
30
0
40
1.650999999999998
0
CIRCLE
5
116
100
AcDbEntity
8
0
100
AcDbCircle
10
263.24058835865998
20
141.09456993457115
30
0
40
2.5999999999999979
0
CIRCLE
5
117
100
AcDbEntity
8
0
100
AcDbCircle
10
229.52052432839281
20
204.09456993457127
30
0
40
1.6509999999999891
0
CIRCLE
5
118
100
AcDbEntity
8
0
100
AcDbCircle
10
182.36558835866103
20
-214.25083756802337
30
0
40
1.6510000000000067
0
CIRCLE
5
119
100
AcDbEntity
8
0
100
AcDbCircle
10
339.74058835866094
20
-204.3619090627277
30
0
40
1.650999999999998
0
CIRCLE
5
120
100
AcDbEntity
8
0
100
AcDbCircle
10
182.36558835866072
20
-133.27922868142224
30
0
40
1.6509999999999891
0
CIRCLE
5
121
100
AcDbEntity
8
0
100
AcDbCircle
10
300.52052432839281
20
204.09456993457127
30
0
40
1.650999999999998
0
CIRCLE
5
122
100
AcDbEntity
8
0
100
AcDbCircle
10
455.24058835866049
20
41.094569934571297
30
0
40
2.5999999999999979
0
CIRCLE
5
123
100
AcDbEntity
8
0
100
AcDbCircle
10
455.24058835866066
20
-58.90543006542984
30
0
40
2.5999999999999979
0
CIRCLE
5
124
100
AcDbEntity
8
0
100
AcDbCircle
10
442.52052432839275
20
204.09456993457184
30
0
40
1.6509999999999891
0
CIRCLE
5
125
100
AcDbEntity
8
0
100
AcDbCircle
10
464.11558835866072
20
-216.15393959280325
30
0
40
1.6509999999999891
0
CIRCLE
5
126
100
AcDbEntity
8
0
100
AcDbCircle
10
182.3655883586606
20
-38.279228681422381
30
0
40
1.6509999999999891
0
LWPOLYLINE
5
127
100
AcDbEntity
8
0
100
AcDbPolyline
90
4
70
1
43
0.0
10
162.36558835866106
20
-242.90543006542933
10
162.36558835866018
20
242.0945699345711
10
472.11558835865992
20
242.09456993457138
10
472.11558835866066
20
-242.90543006542933
42
0.089265536723167088
0
CIRCLE
5
128
100
AcDbEntity
8
0
100
AcDbCircle
10
32.000000000000419
20
141.49999999999963
30
0
40
2.5999999999999979
0
CIRCLE
5
129
100
AcDbEntity
8
0
100
AcDbCircle
10
134.87500000000006
20
57.126201384007089
30
0
40
1.6509999999999934
0
CIRCLE
5
130
100
AcDbEntity
8
0
100
AcDbCircle
10
134.875
20
152.12620138400709
30
0
40
1.6509999999999934
0
CIRCLE
5
131
100
AcDbEntity
8
0
100
AcDbCircle
10
16.720064030267245
20
204.50000000000045
30
0
40
1.6509999999999891
0
CIRCLE
5
132
100
AcDbEntity
8
0
100
AcDbCircle
10
134.87500000000023
20
-132.87379861599291
30
0
40
1.6509999999999934
0
CIRCLE
5
133
100
AcDbEntity
8
0
100
AcDbCircle
10
-138
20
41.500000000000767
30
0
40
2.6000000000000156
0
CIRCLE
5
134
100
AcDbEntity
8
0
100
AcDbCircle
10
-54.279935969732698
20
204.50000000000017
30
0
40
1.6509999999999891
0
CIRCLE
5
135
100
AcDbEntity
8
0
100
AcDbCircle
10
134.87500000000009
20
-213.8454075025939
30
0
40
1.6510000000000025
0
CIRCLE
5
136
100
AcDbEntity
8
0
100
AcDbCircle
10
87.720064030267338
20
204.50000000000045
30
0
40
1.650999999999998
0
CIRCLE
5
137
100
AcDbEntity
8
0
100
AcDbCircle
10
54.000000000000377
20
41.499999999999488
30
0
40
2.5999999999999979
0
CIRCLE
5
138
100
AcDbEntity
8
0
100
AcDbCircle
10
-138
20
-158.50000000000051
30
0
40
2.6000000000000156
0
CIRCLE
5
139
100
AcDbEntity
8
0
100
AcDbCircle
10
-83.499999999999829
20
-207.55940751759312
30
0
40
1.6510000000000247
0
CIRCLE
5
140
100
AcDbEntity
8
0
100
AcDbCircle
10
32.000000000000455
20
-58.500000000000369
30
0
40
2.5999999999999979
0
CIRCLE
5
141
100
AcDbEntity
8
0
100
AcDbCircle
10
54.000000000000306
20
-158.49999999999923
30
0
40
2.5999999999999979
0
CIRCLE
5
142
100
AcDbEntity
8
0
100
AcDbCircle
10
-22.499999999999893
20
-203.95647899729909
30
0
40
1.6509999999999891
0
CIRCLE
5
143
100
AcDbEntity
8
0
100
AcDbCircle
10
56.187500000000092
20
-205.43177751980323
30
0
40
1.6509999999999891
0
CIRCLE
5
144
100
AcDbEntity
8
0
100
AcDbCircle
10
-138
20
-58.500000000000512
30
0
40
2.6000000000000156
0
CIRCLE
5
145
100
AcDbEntity
8
0
100
AcDbCircle
10
54.000000000000234
20
141.50000000000077
30
0
40
2.5999999999999979
0
CIRCLE
5
146
100
AcDbEntity
8
0
100
AcDbCircle
10
-138
20
141.49999999999949
30
0
40
2.6000000000000156
0
CIRCLE
5
147
100
AcDbEntity
8
0
100
AcDbCircle
10
-125.27993596973263
20
204.50000000000017
30
0
40
1.6509999999999891
0
LWPOLYLINE
5
148
100
AcDbEntity
8
0
100
AcDbPolyline
90
8
70
1
43
0.0
10
-70.649999999999949
20
142.67500000000041
10
-0.65000000000001279
20
142.67500000000041
42
0.41421356237309537
10
19.349999999999987
20
162.67500000000041
10
19.34999999999998
20
177.67500000000038
42
0.4142135623730957
10
9.3499999999999872
20
187.67500000000041
10
-80.649999999999991
20
187.67500000000035
42
0.41421356237309398
10
-90.649999999999864
20
177.67500000000041
10
-90.649999999999892
20
162.67500000000038
42
0.4142135623730927
0
CIRCLE
5
149
100
AcDbEntity
8
0
100
AcDbCircle
10
1.7763568394002505e-13
20
236.17499999999978
30
0
40
1.7499999999999716
0
CIRCLE
5
150
100
AcDbEntity
8
0
100
AcDbCircle
10
54.000000000000448
20
-58.500000000000512
30
0
40
2.5999999999999979
0
CIRCLE
5
151
100
AcDbEntity
8
0
100
AcDbCircle
10
32.000000000000419
20
41.499999999999631
30
0
40
2.5999999999999979
0
CIRCLE
5
152
100
AcDbEntity
8
0
100
AcDbCircle
10
32.000000000000455
20
-158.50000000000023
30
0
40
2.5999999999999979
0
CIRCLE
5
153
100
AcDbEntity
8
0
100
AcDbCircle
10
-146.87499999999955
20
-215.74850952737478
30
0
40
1.6509999999999891
0
CIRCLE
5
154
100
AcDbEntity
8
0
100
AcDbCircle
10
134.87500000000011
20
-37.873798615993053
30
0
40
1.6509999999999934
0
LWPOLYLINE
5
155
100
AcDbEntity
8
0
100
AcDbPolyline
90
4
70
1
43
0.0
10
-154.87499999999943
20
-242.50000000000043
10
-154.87499999999986
20
242.50000000000028
10
154.87499999999986
20
242.50000000000057
10
154.87499999999983
20
-242.5
42
0.089265536723165395
0
CIRCLE
5
156
100
AcDbEntity
8
0
100
AcDbCircle
10
-162.51463361796081
20
-156.15129761314407
30
0
40
1.5999999999999925
0
CIRCLE
5
157
100
AcDbEntity
8
0
100
AcDbCircle
10
-170.01463361796101
20
224.44870238685525
30
0
40
1.6000000000000103
0
CIRCLE
5
158
100
AcDbEntity
8
0
100
AcDbCircle
10
-193.51463361796104
20
120.39870238685523
30
0
40
1.5999999999999925
0
CIRCLE
5
159
100
AcDbEntity
8
0
100
AcDbCircle
10
-193.51463361796104
20
40.398702386855092
30
0
40
1.5999999999999925
0
CIRCLE
5
160
100
AcDbEntity
8
0
100
AcDbCircle
10
-193.51463361796104
20
100.39870238685523
30
0
40
1.5999999999999925
0
LWPOLYLINE
5
161
100
AcDbEntity
8
0
100
AcDbPolyline
90
5
70
1
43
0.0
10
-169.94230180837963
20
109.89012420973324
10
-184.01463361796107
20
109.89012420973324
42
0.41421356237309193
10
-189.01463361796121
20
104.89012420973324
10
-189.01463361796104
20
89.069780563978213
42
0.73261806006824393
10
-185.37815930640679
20
87.920018924496901
0
CIRCLE
5
162
100
AcDbEntity
8
0
100
AcDbCircle
10
-193.51463361796104
20
80.398702386855234
30
0
40
1.5999999999999925
0
CIRCLE
5
163
100
AcDbEntity
8
0
100
AcDbCircle
10
-193.51463361796104
20
20.398702386855234
30
0
40
1.5999999999999925
0
CIRCLE
5
164
100
AcDbEntity
8
0
100
AcDbCircle
10
-193.51463361796104
20
60.398702386855234
30
0
40
1.5999999999999925
0
CIRCLE
5
165
100
AcDbEntity
8
0
100
AcDbCircle
10
-186.01463361796095
20
224.44870238685525
30
0
40
1.5999999999999837
0
LWPOLYLINE
5
166
100
AcDbEntity
8
0
100
AcDbPolyline
90
6
70
1
43
0.0
10
-189.01463361796149
20
206.94870238685525
42
-0.4142135623730992
10
-184.01463361796095
20
211.94870238685513
10
-165.86408193162316
20
211.94870238685542
42
-0.60736000808687562
10
-164.22760762006897
20
208.7989407473739
10
-185.37815930640699
20
178.69501892449688
42
-0.73261806006820118
10
-189.01463361796115
20
179.84478056397847
0
LWPOLYLINE
5
167
100
AcDbEntity
8
0
100
AcDbPolyline
90
6
70
1
43
0.0
10
-162.01463361796104
20
-137.86771943602133
10
-162.01463361796104
20
-73.659875790266653
42
0.73261806006823882
10
-165.6511079295154
20
-72.51011415078537
10
-184.9756095456321
20
-100.01498941573674
42
0.31617482786233631
10
-184.97560954563215
20
-111.51260581055126
10
-165.65110792951529
20
-139.01748107550281
42
0.73261806006824903
0
CIRCLE
5
168
100
AcDbEntity
8
0
100
AcDbCircle
10
-193.51463361796104
20
140.39870238685523
30
0
40
1.5999999999999925
0
LWPOLYLINE
5
169
100
AcDbEntity
8
0
100
AcDbPolyline
90
5
70
1
43
0.0
10
-189.01463361796101
20
-28.272375790266864
10
-189.01463361796107
20
-44.092719436021781
42
0.41421356237309348
10
-184.01463361796107
20
-49.092719436021497
10
-169.94230180837963
20
-49.092719436021497
10
-185.37815930640681
20
-27.122614150785257
42
0.73261806006828634
0
LWPOLYLINE
5
170
100
AcDbEntity
8
0
100
AcDbPolyline
90
8
70
1
43
0.0
10
-162.01463361796112
20
-66.659875790266767
10
-162.01463361796104
20
-54.092719436021639
42
0.41421356237308982
10
-163.01463361796112
20
-53.092719436021412
10
-188.0146336179611
20
-53.092719436021476
42
0.41421356237312362
10
-189.01463361796101
20
-54.092719436021639
10
-189.01463361796101
20
-66.65987579026671
42
0.41421356237309764
10
-188.01463361796107
20
-67.65987579026671
10
-163.01463361796112
20
-67.659875790266796
42
0.41421356237311846
0
CIRCLE
5
171
100
AcDbEntity
8
0
100
AcDbCircle
10
-193.51463361796104
20
-59.601297613144766
30
0
40
1.5999999999999925
0
LWPOLYLINE
5
172
100
AcDbEntity
8
0
100
AcDbPolyline
90
5
70
1
43
0.0
10
-169.94230180837948
20
19.115124209733096
10
-184.01463361796107
20
19.115124209733096
42
0.4142135623730997
10
-189.01463361796101
20
14.115124209733239
10
-189.01463361796107
20
-1.7052194360216295
42
0.73261806006824226
10
-185.37815930640679
20
-2.8549810755032468
0
CIRCLE
5
173
100
AcDbEntity
8
0
100
AcDbCircle
10
-193.51463361796104
20
-99.601297613144766
30
0
40
1.5999999999999925
0
CIRCLE
5
174
100
AcDbEntity
8
0
100
AcDbCircle
10
-170.01463361796101
20
-163.65129761314392
30
0
40
1.6000000000000103
0
CIRCLE
5
175
100
AcDbEntity
8
0
100
AcDbCircle
10
-193.51463361796104
20
-139.60129761314477
30
0
40
1.5999999999999925
0
CIRCLE
5
176
100
AcDbEntity
8
0
100
AcDbCircle
10
-193.51463361796104
20
-39.601297613144624
30
0
40
1.5999999999999925
0
CIRCLE
5
177
100
AcDbEntity
8
0
100
AcDbCircle
10
-170.01463361796101
20
239.44870238685525
30
0
40
1.6000000000000014
0
LWPOLYLINE
5
178
100
AcDbEntity
8
0
100
AcDbPolyline
90
20
70
1
43
0.0
10
-173.5359749233086
20
-176.90129761314404
42
-0.24153136105888171
10
-171.09927633710629
20
-175.65129761314395
10
-164.01463361796112
20
-175.65129761314395
42
0.41421356237310897
10
-161.0146336179611
20
-172.65129761314412
10
-161.0146336179611
20
-169.6512976131441
42
0.41421356237306733
10
-164.01463361796115
20
-166.65129761314404
10
-171.09927633710623
20
-166.65129761314407
42
-0.2415313610588945
10
-173.53597492330852
20
-165.40129761314398
42
0.24153136105885734
10
-175.97267350951083
20
-164.15129761314375
10
-180.05659372641117
20
-164.1512976131439
42
0.24153136105891104
10
-182.49329231261345
20
-165.40129761314398
42
-0.24153136105888171
10
-184.92999089881576
20
-166.65129761314404
10
-192.01463361796101
20
-166.65129761314404
42
0.41421356237311585
10
-195.01463361796101
20
-169.65129761314415
10
-195.01463361796101
20
-172.65129761314412
42
0.41421356237308815
10
-192.01463361796098
20
-175.65129761314395
10
-184.92999089881573
20
-175.65129761314398
42
-0.24153136105888123
10
-182.49329231261345
20
-176.90129761314404
42
0.24153136105888545
10
-180.05659372641117
20
-178.15129761314424
10
-175.97267350951091
20
-178.15129761314424
42
0.24153136105888856
0
CIRCLE
5
179
100
AcDbEntity
8
0
100
AcDbCircle
10
-186.01463361796095
20
239.44870238685525
30
0
40
1.6000000000000014
0
CIRCLE
5
180
100
AcDbEntity
8
0
100
AcDbCircle
10
-193.51463361796104
20
-79.601297613144766
30
0
40
1.5999999999999925
0
CIRCLE
5
181
100
AcDbEntity
8
0
100
AcDbCircle
10
-186.01463361796095
20
-163.65129761314392
30
0
40
1.5999999999999837
0
CIRCLE
5
182
100
AcDbEntity
8
0
100
AcDbCircle
10
-193.5146336179611
20
216.94870238685525
30
0
40
1.6000000000000014
0
CIRCLE
5
183
100
AcDbEntity
8
0
100
AcDbCircle
10
-193.51463361796104
20
180.39870238685523
30
0
40
1.5999999999999925
0
LWPOLYLINE
5
184
100
AcDbEntity
8
0
100
AcDbPolyline
90
5
70
1
43
0.0
10
-189.01463361796115
20
62.502624209732858
10
-189.01463361796107
20
46.682280563978367
42
0.41421356237309503
10
-184.01463361796107
20
41.682280563978225
10
-169.94230180837977
20
41.682280563978225
10
-185.37815930640679
20
63.652385849214284
42
0.73261806006826602
0
LWPOLYLINE
5
185
100
AcDbEntity
8
0
100
AcDbPolyline
90
6
70
1
43
0.0
10
-162.01463361796135
20
134.45728056397797
42
-0.73261806006825214
10
-165.65110792951558
20
133.30751892449649
10
-184.97560954563255
20
160.81239418944801
42
-0.31617482786232992
10
-184.97560954563252
20
172.31001058426259
10
-165.65110792951575
20
199.81488584921408
42
-0.73261806006825836
10
-162.01463361796152
20
198.66512420973265
0
LWPOLYLINE
5
186
100
AcDbEntity
8
0
100
AcDbPolyline
90
5
70
1
43
0.0
10
-169.94230180837963
20
-71.659875790266767
10
-184.01463361796107
20
-71.659875790266767
42
0.41421356237308671
10
-189.01463361796101
20
-76.659875790266767
10
-189.01463361796104
20
-92.480219436021471
42
0.73261806006827812
10
-185.37815930640679
20
-93.629981075502968
0
CIRCLE
5
187
100
AcDbEntity
8
0
100
AcDbCircle
10
-170.01463361796101
20
-178.65129761314392
30
0
40
1.6000000000000014
0
CIRCLE
5
188
100
AcDbEntity
8
0
100
AcDbCircle
10
-186.01463361796095
20
-178.65129761314392
30
0
40
1.6000000000000014
0
CIRCLE
5
189
100
AcDbEntity
8
0
100
AcDbCircle
10
-193.5146336179611
20
-156.15129761314407
30
0
40
1.5999999999999925
0
CIRCLE
5
190
100
AcDbEntity
8
0
100
AcDbCircle
10
-193.51463361796104
20
-19.601297613144624
30
0
40
1.5999999999999925
0
CIRCLE
5
191
100
AcDbEntity
8
0
100
AcDbCircle
10
-193.51463361796104
20
200.39870238685523
30
0
40
1.5999999999999925
0
LWPOLYLINE
5
192
100
AcDbEntity
8
0
100
AcDbPolyline
90
6
70
1
43
0.0
10
-162.01463361796118
20
43.682280563978111
10
-162.01463361796132
20
107.89012420973293
42
0.73261806006826447
10
-165.65110792951555
20
109.03988584921436
10
-184.97560954563232
20
81.535010584262636
42
0.3161748278623242
10
-184.9756095456323
20
70.037394189448321
10
-165.65110792951543
20
42.532518924496685
42
0.73261806006819774
0
LWPOLYLINE
5
193
100
AcDbEntity
8
0
100
AcDbPolyline
90
6
70
1
43
0.0
10
-162.01463361796112
20
-47.092719436021611
10
-162.01463361796112
20
17.115124209733068
42
0.73261806006824892
10
-165.6511079295154
20
18.264885849214494
10
-184.97560954563215
20
-9.239989415737055
42
0.31617482786232637
10
-184.97560954563215
20
-20.737605810551685
10
-165.6511079295154
20
-48.24248107550325
42
0.73261806006827745
0
CIRCLE
5
194
100
AcDbEntity
8
0
100
AcDbCircle
10
-193.51463361796104
20
0.39870238685523418
30
0
40
1.5999999999999925
0
LWPOLYLINE
5
195
100
AcDbEntity
8
0
100
AcDbPolyline
90
20
70
1
43
0.0
10
-192.01463361796155
20
227.44870238685536
10
-184.92999089881624
20
227.4487023868553
42
-0.24153136105887404
10
-182.49329231261396
20
226.19870238685525
42
0.2415313610588625
10
-180.05659372641165
20
224.94870238685508
10
-175.97267350951125
20
224.94870238685522
42
0.24153136105886469
10
-173.53597492330917
20
226.19870238685525
42
-0.24153136105887735
10
-171.0992763371068
20
227.44870238685536
10
-164.01463361796164
20
227.44870238685547
42
0.41421356237308815
10
-161.01463361796166
20
230.44870238685547
10
-161.01463361796166
20
233.4487023868553
42
0.41421356237310542
10
-164.01463361796164
20
236.44870238685542
10
-170.05659372641179
20
236.44870238685516
42
-0.24153136105886958
10
-172.49329231261407
20
237.69870238685525
42
0.2415313610588877
10
-174.92999089881624
20
238.94870238685542
10
-181.09927633710683
20
238.94870238685527
42
0.24153136105889192
10
-183.53597492330897
20
237.69870238685525
42
-0.24153136105887982
10
-185.9726735095114
20
236.44870238685513
10
-192.01463361796155
20
236.44870238685527
42
0.41421356237309853
10
-195.01463361796152
20
233.4487023868553
10
-195.01463361796152
20
230.44870238685519
42
0.41421356237310542
0
LWPOLYLINE
5
196
100
AcDbEntity
8
0
100
AcDbPolyline
90
6
70
1
43
0.0
10
-184.01463361796101
20
-151.15129761314392
10
-165.86408193162268
20
-151.15129761314392
42
0.60736000808684565
10
-164.22760762006834
20
-148.00153597366261
10
-185.37815930640673
20
-117.89761415078516
42
0.73261806006827679
10
-189.01463361796101
20
-119.04737579026659
10
-189.01463361796101
20
-146.15129761314387
42
0.4142135623730992
0
LWPOLYLINE
5
197
100
AcDbEntity
8
0
100
AcDbPolyline
90
8
70
1
43
0.0
10
-189.01463361796101
20
36.682280563978367
10
-189.01463361796101
20
24.115124209733096
42
0.41421356237305212
10
-188.01463361796107
20
23.115124209733153
10
-163.01463361796107
20
23.115124209733196
42
0.4142135623730534
10
-162.01463361796112
20
24.115124209733239
10
-162.01463361796115
20
36.682280563978402
42
0.41421356237308332
10
-163.01463361796112
20
37.68228056397831
10
-188.01463361796107
20
37.682280563978324
42
0.41421356237308854
0
CIRCLE
5
198
100
AcDbEntity
8
0
100
AcDbCircle
10
-193.51463361796104
20
160.39870238685523
30
0
40
1.5999999999999925
0
CIRCLE
5
199
100
AcDbEntity
8
0
100
AcDbCircle
10
-193.51463361796104
20
-119.60129761314477
30
0
40
1.5999999999999925
0
LWPOLYLINE
5
200
100
AcDbEntity
8
0
100
AcDbPolyline
90
8
70
1
43
0.0
10
-189.01463361796101
20
127.45728056397837
10
-189.01463361796101
20
114.89012420973324
42
0.41421356237307944
10
-188.01463361796107
20
113.89012420973316
10
-163.01463361796118
20
113.89012420973323
42
0.41421356237310542
10
-162.01463361796112
20
114.89012420973324
10
-162.01463361796115
20
127.45728056397834
42
0.41421356237311063
10
-163.01463361796112
20
128.45728056397832
10
-188.01463361796098
20
128.45728056397834
42
0.41421356237311585
0
LWPOLYLINE
5
201
100
AcDbEntity
8
0
100
AcDbPolyline
90
5
70
1
43
0.0
10
-189.01463361796135
20
153.27762420973229
10
-189.01463361796129
20
137.45728056397837
42
0.41421356237310442
10
-184.01463361796107
20
132.45728056397837
10
-169.94230180838019
20
132.45728056397837
10
-185.37815930640681
20
154.42738584921383
42
0.73261806006825314
0
CIRCLE
5
202
100
AcDbEntity
8
0
100
AcDbCircle
10
-162.51463361796087
20
216.94870238685525
30
0
40
1.6000000000000014
0
LWPOLYLINE
5
203
100
AcDbEntity
8
0
100
AcDbPolyline
90
22
70
1
43
0.0
10
-206.01463361796095
20
211.44870238685542
10
-204.01463361796101
20
211.44870238685547
42
-0.41421356237307422
10
-203.01463361796107
20
210.44870238685547
10
-203.01463361796098
20
187.94870238685544
42
0.4142135623730846
10
-202.01463361796098
20
186.94870238685525
10
-199.0146336179609
20
186.94870238685547
42
0.41421356237312623
10
-198.01463361796098
20
187.94870238685547
10
-198.01463361796098
20
212.9487023868555
42
0.41421356237306384
10
-199.01463361796101
20
213.94870238685542
10
-206.01463361796104
20
213.94870238685527
42
-0.41421356237307422
10
-207.01463361796104
20
214.94870238685536
10
-207.01463361796112
20
215.56120781691706
42
-0.2870075753932203
10
-202.51463361796098
20
222.75495510188631
42
0.28700757539321659
10
-198.01463361796098
20
229.94870238685536
10
-198.01463361796098
20
241.94870238685525
10
-158.01463361796098
20
241.94870238685525
10
-158.01463361796098
20
-181.15129761314407
10
-198.01463361796098
20
-181.1512976131441
10
-198.01463361796101
20
170.94870238685542
42
0.28700757539322813
10
-202.51463361796098
20
178.14244967182449
42
-0.28700757539322164
10
-207.01463361796104
20
185.33619695679363
10
-207.01463361796098
20
210.44870238685542
42
-0.41421356237313667
0
SPLINE
5
204
100
AcDbEntity
8
0
100
AcDbSpline
70
1064
71
3
72
14
73
10
74
0
42
0.000000001
43
0.0000000001
44
0.0000000001
40
5.7282087419290129
40
5.7282087419290129
40
5.7282087419290129
40
5.7282087419290129
40
6
40
6
40
6
40
7
40
7
40
7
40
8
40
8
40
8
40
8
10
-45.979716780376059
20
183.53804688288051
30
0
10
-46.020088076761674
20
183.63433039917794
30
0
10
-46.068158626511497
20
183.69348010336267
30
0
10
-46.140577713488149
20
183.71559684488147
30
0
10
-46.66638428154176
20
183.87617782484
30
0
10
-47.70994584051838
20
181.8502361659219
30
0
10
-47.714069919988553
20
181.84532238574405
30
0
10
-55.929164632858068
20
172.05715757172115
30
0
10
-59.69081254246742
20
167.19713515984608
30
0
10
-60.105119681583226
20
167.48799795670138
30
0
0
SPLINE
5
205
100
AcDbEntity
8
0
100
AcDbSpline
70
1064
71
3
72
23
73
19
74
0
42
0.000000001
43
0.0000000001
44
0.0000000001
40
8
40
8
40
8
40
8
40
9
40
9
40
9
40
10
40
10
40
10
40
11
40
11
40
11
40
12
40
12
40
12
40
13
40
13
40
13
40
14
40
14
40
14
40
14
10
-60.105119681583226
20
167.48799795670138
30
0
10
-60.201827818910765
20
167.55592776237563
30
0
10
-60.08433711665436
20
167.88234473843673
30
0
10
-59.930443837319878
20
168.26312717363336
30
0
10
-58.118988874834692
20
172.74526073298787
30
0
10
-53.711057692460322
20
178.70737661976392
30
0
10
-53.413968846353335
20
180.82807859139507
30
0
10
-53.388941199732578
20
181.00673282304854
30
0
10
-53.34428989299429
20
181.35764945179545
30
0
10
-53.515192387015453
20
181.7120916620388
30
0
10
-53.655114012937695
20
182.00228128529034
30
0
10
-53.892290583649789
20
182.2380336286372
30
0
10
-55.114159050054248
20
182.79342456808024
30
0
10
-56.597084937022224
20
183.46747715568085
30
0
10
-56.838898314260256
20
183.39533237732212
30
0
10
-56.966599468282801
20
183.32765857111951
30
0
10
-57.405594097834189
20
183.09501824996033
30
0
10
-57.457466983609571
20
182.40562496603303
30
0
10
-57.478210684917421
20
182.19783579730176
30
0
0
SPLINE
5
206
100
AcDbEntity
8
0
100
AcDbSpline
70
1064
71
3
72
8
73
4
74
0
42
0.000000001
43
0.0000000001
44
0.0000000001
40
14
40
14
40
14
40
14
40
15
40
15
40
15
40
15
10
-57.478210684917421
20
182.19783579730176
30
0
10
-57.663122567275558
20
180.34366412425356
30
0
10
-59.166226817570156
20
178.71547544841803
30
0
10
-60.48524450694817
20
176.01007748019185
30
0
0
SPLINE
5
207
100
AcDbEntity
8
0
100
AcDbSpline
70
1064
71
3
72
17
73
13
74
0
42
0.000000001
43
0.0000000001
44
0.0000000001
40
15
40
15
40
15
40
15
40
16
40
16
40
16
40
17
40
17
40
17
40
18
40
18
40
18
40
19
40
19
40
19
40
19
10
-60.48524450694817
20
176.01007748019185
30
0
10
-60.6375978944126
20
176.43027503707387
30
0
10
-60.868478143735736
20
176.84680507896871
30
0
10
-61.224002911600017
20
177.19241482750022
30
0
10
-61.706486146163932
20
177.66144237337244
30
0
10
-62.080017839099675
20
177.67441976677645
30
0
10
-62.161198855257815
20
177.67491454704071
30
0
10
-62.967816281103346
20
177.67983070111086
30
0
10
-64.224843100580784
20
176.10146476634668
30
0
10
-64.513193103203463
20
175.80097559239263
30
0
10
-65.836955995891373
20
174.42148395196654
30
0
10
-65.836954361305004
20
174.42148238341417
30
0
10
-68.517165210683004
20
171.81599491768651
30
0
0
SPLINE
5
208
100
AcDbEntity
8
0
100
AcDbSpline
70
1064
71
3
72
11
73
7
74
0
42
0.000000001
43
0.0000000001
44
0.0000000001
40
19
40
19
40
19
40
19
40
20
40
20
40
20
40
21
40
21
40
21
40
21
10
-68.517165210683004
20
171.81599491768651
30
0
10
-67.862421080276533
20
173.08364128528751
30
0
10
-67.447734180216202
20
174.06697061541848
30
0
10
-67.194339722624477
20
174.7200556495514
30
0
10
-67.104054244510991
20
174.95275250928472
30
0
10
-67.012215053297581
20
175.2002815082578
30
0
10
-67.01545720600339
20
175.53454171141283
30
0
0
SPLINE
5
209
100
AcDbEntity
8
0
100
AcDbSpline
70
1064
71
3
72
14
73
10
74
0
42
0.000000001
43
0.0000000001
44
0.0000000001
40
21
40
21
40
21
40
21
40
22
40
22
40
22
40
23
40
23
40
23
40
24
40
24
40
24
40
24
10
-67.01545720600339
20
175.53454171141283
30
0
10
-67.017751299562718
20
175.76952518778029
30
0
10
-67.06813717055897
20
176.16129212346237
30
0
10
-68.047376400274288
20
177.47904222809836
30
0
10
-68.732375783784676
20
178.40083598003133
30
0
10
-68.961244041961464
20
178.550275559017
30
0
10
-69.2239748822347
20
178.60302573083459
30
0
10
-69.574761041821461
20
178.67345533921309
30
0
10
-70.925154148631975
20
178.53504010633145
30
0
10
-71.110216978866958
20
178.45428491936616
30
0
0
SPLINE
5
210
100
AcDbEntity
8
0
100
AcDbSpline
70
1064
71
3
72
32
73
28
74
0
42
0.000000001
43
0.0000000001
44
0.0000000001
40
24
40
24
40
24
40
24
40
25
40
25
40
25
40
26
40
26
40
26
40
27
40
27
40
27
40
28
40
28
40
28
40
29
40
29
40
29
40
30
40
30
40
30
40
31
40
31
40
31
40
32
40
32
40
32
40
33
40
33
40
33
40
33
10
-71.110216978866958
20
178.45428491936616
30
0
10
-73.276311036799171
20
177.50890541138119
30
0
10
-73.86996335991978
20
177.25024615618452
30
0
10
-73.912515189725127
20
176.3933993302561
30
0
10
-73.949057693592152
20
175.6575595651222
30
0
10
-72.38830339590973
20
176.78832683513093
30
0
10
-71.415619741032657
20
176.98401737707201
30
0
10
-71.000902989290864
20
177.06745267023564
30
0
10
-70.558910884141397
20
177.01357445147238
30
0
10
-70.959585800365403
20
175.96299470503212
30
0
10
-71.016840764590341
20
175.81287074328102
30
0
10
-71.907941591083897
20
174.08912225449754
30
0
10
-71.986785199197982
20
173.94912409441474
30
0
10
-74.048579080202217
20
170.28811267300995
30
0
10
-75.150449626215845
20
167.86924609676205
30
0
10
-76.110470615526651
20
165.72327872751771
30
0
10
-78.078780857948573
20
161.3234483073316
30
0
10
-79.277268522294946
20
157.67932146380815
30
0
10
-80.311918922411422
20
154.95987743039763
30
0
10
-80.354747361684559
20
154.84730844706917
30
0
10
-80.813500116132218
20
153.52745898112587
30
0
10
-80.969860508349115
20
152.96223082259175
30
0
10
-81.296185836234997
20
151.78259535641715
30
0
10
-80.274433238343448
20
150.55803461412438
30
0
10
-80.218220045176764
20
150.43740192161181
30
0
10
-79.880161553147417
20
149.71193332922411
30
0
10
-79.264873238197112
20
149.09878950580037
30
0
10
-78.768839113267603
20
148.81883456014265
30
0
0
SPLINE
5
211
100
AcDbEntity
8
0
100
AcDbSpline
70
1064
71
3
72
14
73
10
74
0
42
0.000000001
43
0.0000000001
44
0.0000000001
40
33
40
33
40
33
40
33
40
34
40
34
40
34
40
35
40
35
40
35
40
36
40
36
40
36
40
36
10
-78.768839113267603
20
148.81883456014265
30
0
10
-78.691844158802724
20
148.27269471106646
30
0
10
-78.533785962056271
20
147.79071513518119
30
0
10
-78.126396576837578
20
147.40447108654251
30
0
10
-78.079171759606282
20
147.359697449169
30
0
10
-77.416722990353463
20
146.74558210397208
30
0
10
-76.903626399132861
20
146.94210649353167
30
0
10
-76.701271308952272
20
147.01961180393994
30
0
10
-76.596211796171929
20
147.19484984440982
30
0
10
-76.56984444794179
20
147.23576516683011
30
0
0
SPLINE
5
212
100
AcDbEntity
8
0
100
AcDbSpline
70
1064
71
3
72
8
73
4
74
0
42
0.000000001
43
0.0000000001
44
0.0000000001
40
36
40
36
40
36
40
36
40
37
40
37
40
37
40
37
10
-76.56984444794179
20
147.23576516683011
30
0
10
-76.031778008219078
20
148.07109385140436
30
0
10
-67.700060902163443
20
153.84984112978046
30
0
10
-63.348263646377667
20
158.41668629926986
30
0
0
SPLINE
5
213
100
AcDbEntity
8
0
100
AcDbSpline
70
1064
71
3
72
20
73
16
74
0
42
0.000000001
43
0.0000000001
44
0.0000000001
40
37
40
37
40
37
40
37
40
38
40
38
40
38
40
39
40
39
40
39
40
40
40
40
40
40
40
41
40
41
40
41
40
42
40
42
40
42
40
42
10
-63.348263646377667
20
158.41668629926986
30
0
10
-63.492162278367452
20
157.85702232479466
30
0
10
-63.509875124446076
20
157.43803832603092
30
0
10
-63.501885253155201
20
157.12423718785615
30
0
10
-63.438320543973425
20
154.62774164207929
30
0
10
-61.719281003852551
20
151.84772325114196
30
0
10
-59.892416300464184
20
151.75110565682388
30
0
10
-59.328640918953859
20
151.72128920626989
30
0
10
-58.588857820553351
20
151.93824395572946
30
0
10
-58.001344319795898
20
152.33642808213006
30
0
10
-57.319571502212163
20
152.79849595533335
30
0
10
-56.781650764337535
20
153.39467979272357
30
0
10
-56.640828276565109
20
153.65926252733814
30
0
10
-53.302496031217252
20
159.93145021907722
30
0
10
-52.29309605120509
20
163.44775333862572
30
0
10
-52.293084834307244
20
163.44781695281455
30
0
0
SPLINE
5
214
100
AcDbEntity
8
0
100
AcDbSpline
70
1064
71
3
72
8
73
4
74
0
42
0.000000001
43
0.0000000001
44
0.0000000001
40
42
40
42
40
42
40
42
40
43
40
43
40
43
40
43
10
-52.293084834307244
20
163.44781695281455
30
0
10
-51.591218163556682
20
165.4727445274294
30
0
10
-50.772448305248581
20
167.77069257335967
30
0
10
-49.604033272234638
20
170.29974783831832
30
0
0
SPLINE
5
215
100
AcDbEntity
8
0
100
AcDbSpline
70
1064
71
3
72
11
73
7
74
0
42
0.000000001
43
0.0000000001
44
0.0000000001
40
43
40
43
40
43
40
43
40
44
40
44
40
44
40
44.927947755509734
40
44.927947755509734
40
44.927947755509734
40
44.927947755509734
10
-49.604033272234638
20
170.29974783831832
30
0
10
-48.14531057958515
20
171.52421591561975
30
0
10
-46.440996628509161
20
172.60108867240547
30
0
10
-45.858474626742058
20
172.92533434506723
30
0
10
-43.581589297683614
20
174.1927031532056
30
0
10
-42.667548213144535
20
174.71684184738919
30
0
10
-41.961582483243482
20
175.89209872933267
30
0
0
SPLINE
5
216
100
AcDbEntity
8
0
100
AcDbSpline
70
1064
71
3
72
12
73
8
74
0
42
0.000000001
43
0.0000000001
44
0.0000000001
40
0
40
0
40
0
40
0
40
0.029298335504019734
40
0.029298335504019734
40
0.045764071351761748
40
0.045764071351761748
40
0.062229807199503467
40
0.062229807199503467
40
0.062229807199503467
40
0.062229807199503467
10
-41.468986310169562
20
176.2406804857379
30
0
10
-41.564665556728109
20
176.22110560860634
30
0
10
-41.655606648756098
20
176.18302959352633
30
0
10
-41.782260266686144
20
176.09800360256145
30
0
10
-41.824334234765068
20
176.06250157267525
30
0
10
-41.899978170213963
20
175.98295414582168
30
0
10
-41.933320092173325
20
175.93914856220493
30
0
10
-41.961582483243482
20
175.89209872933267
30
0
0
ARC
5
217
100
AcDbEntity
8
0
100
AcDbCircle
10
-42.270733308889668
20
180.1595070639425
30
0
40
3.9999999999999352
100
AcDbArc
50
-78.437499879665708
51
129.43674348502586
0
SPLINE
5
218
100
AcDbEntity
8
0
100
AcDbSpline
70
1064
71
3
72
16
73
12
74
0
42
0.000000001
43
0.0000000001
44
0.0000000001
40
0
40
0
40
0
40
0
40
0.029298335504019411
40
0.029298335504019411
40
0.058596671008039058
40
0.058596671008039058
40
0.087895006512058504
40
0.087895006512058504
40
0.11397804687711388
40
0.11397804687711388
40
0.1400610872421692
40
0.1400610872421692
40
0.1400610872421692
40
0.1400610872421692
10
-45.979716780373714
20
183.53804688287482
30
0
10
-45.941953124957742
20
183.4479824594527
30
0
10
-45.886958926041039
20
183.36615518264892
30
0
10
-45.748700358312071
20
183.22818654637075
30
0
10
-45.666757816763983
20
183.17336424225772
30
0
10
-45.486470818206861
20
183.09821522830418
30
0
10
-45.389850003168029
20
183.07860698399622
30
0
10
-45.20524822113682
20
183.07758947323293
30
0
10
-45.118881201014212
20
183.09223198775982
30
0
10
-44.955029510599367
20
183.15044959659645
30
0
10
-44.878785772085088
20
183.19358377949015
30
0
10
-44.811637039551862
20
183.24881252496567
30
0
0
CIRCLE
5
219
100
AcDbEntity
8
0
100
AcDbCircle
10
-42.270733308889668
20
180.1595070639425
30
0
40
2.000000000000008
0
SPLINE
5
220
100
AcDbEntity
8
0
100
AcDbSpline
70
1064
71
3
72
8
73
4
74
0
42
0.000000001
43
0.0000000001
44
0.0000000001
40
4
40
4
40
4
40
4
40
5
40
5
40
5
40
5
10
-59.81973509992951
20
161.3917752537553
30
0
10
-58.991250055525519
20
162.48129179754201
30
0
10
-57.087325515370289
20
164.53310658517978
30
0
10
-54.939026605757029
20
166.47134200910116
30
0
0
SPLINE
5
221
100
AcDbEntity
8
0
100
AcDbSpline
70
1064
71
3
72
8
73
4
74
0
42
0.000000001
43
0.0000000001
44
0.0000000001
40
5
40
5
40
5
40
5
40
6
40
6
40
6
40
6
10
-54.939026605757029
20
166.47134200910116
30
0
10
-56.042280279371575
20
164.17816645014298
30
0
10
-57.231518174950899
20
160.8006767469071
30
0
10
-58.300806068200011
20
158.32565987015556
30
0
0
SPLINE
5
222
100
AcDbEntity
8
0
100
AcDbSpline
70
1064
71
3
72
8
73
4
74
0
42
0.000000001
43
0.0000000001
44
0.0000000001
40
0
40
0
40
0
40
0
40
1
40
1
40
1
40
1
10
-58.300806068200011
20
158.32565987015556
30
0
10
-58.851175978719361
20
157.05178776519716
30
0
10
-59.315835749077017
20
156.00013648107407
30
0
10
-59.823480433840395
20
154.75318844618329
30
0
0
SPLINE
5
223
100
AcDbEntity
8
0
100
AcDbSpline
70
1064
71
3
72
8
73
4
74
0
42
0.000000001
43
0.0000000001
44
0.0000000001
40
1
40
1
40
1
40
1
40
2
40
2
40
2
40
2
10
-59.823480433840395
20
154.75318844618329
30
0
10
-59.927353188096184
20
154.66950840758784
30
0
10
-60.264649680465858
20
154.15826662061079
30
0
10
-60.730997858527438
20
154.47365419191897
30
0
0
SPLINE
5
224
100
AcDbEntity
8
0
100
AcDbSpline
70
1064
71
3
72
8
73
4
74
0
42
0.000000001
43
0.0000000001
44
0.0000000001
40
2
40
2
40
2
40
2
40
3
40
3
40
3
40
3
10
-60.730997858527438
20
154.47365419191897
30
0
10
-61.248999361964529
20
154.8239491702077
30
0
10
-61.777746259402342
20
155.81797873574118
30
0
10
-61.891594725066206
20
156.40422183690191
30
0
0
SPLINE
5
225
100
AcDbEntity
8
0
100
AcDbSpline
70
1064
71
3
72
8
73
4
74
0
42
0.000000001
43
0.0000000001
44
0.0000000001
40
3
40
3
40
3
40
3
40
4
40
4
40
4
40
4
10
-61.891594725066206
20
156.40422183690191
30
0
10
-62.234687873610532
20
158.17078899828246
30
0
10
-61.029715030071863
20
159.80062500509575
30
0
10
-59.81973509992951
20
161.3917752537553
30
0
0
SPLINE
5
226
100
AcDbEntity
8
0
100
AcDbSpline
70
1064
71
3
72
8
73
4
74
0
42
0.000000001
43
0.0000000001
44
0.0000000001
40
11
40
11
40
11
40
11
40
12
40
12
40
12
40
12
10
-56.30131905995956
20
169.05500113306545
30
0
10
-54.518774386834288
20
170.78075561557185
30
0
10
-54.657920844795065
20
171.08130215554638
30
0
10
-51.658714078170043
20
173.93899949067745
30
0
0
SPLINE
5
227
100
AcDbEntity
8
0
100
AcDbSpline
70
1064
71
3
72
8
73
4
74
0
42
0.000000001
43
0.0000000001
44
0.0000000001
40
12
40
12
40
12
40
12
40
13
40
13
40
13
40
13
10
-51.658714078170043
20
173.93899949067745
30
0
10
-52.08254278558389
20
173.07191782224919
30
0
10
-52.355809006701186
20
172.63378085036294
30
0
10
-52.63513568585001
20
172.05984379669218
30
0
0
SPLINE
5
228
100
AcDbEntity
8
0
100
AcDbSpline
70
1064
71
3
72
8
73
4
74
0
42
0.000000001
43
0.0000000001
44
0.0000000001
40
0
40
0
40
0
40
0
40
1
40
1
40
1
40
1
10
-52.63513568585001
20
172.05984379669218
30
0
10
-53.211953344881699
20
170.87454921464513
30
0
10
-53.37046738101261
20
170.64242711432897
30
0
10
-53.90105970129401
20
169.4828272457066
30
0
0
ELLIPSE
5
229
100
AcDbEntity
8
0
100
AcDbEllipse
10
-38.175340408419878
20
176.6669837661189
30
0
11
23.964541626656597
21
16.621785196409775
31
0.0
40
0.12916116650496245
41
2.1937672957770515
42
2.7039302486737604
0
SPLINE
5
230
100
AcDbEntity
8
0
100
AcDbSpline
70
1064
71
3
72
8
73
4
74
0
42
0.000000001
43
0.0000000001
44
0.0000000001
40
2
40
2
40
2
40
2
40
3
40
3
40
3
40
3
10
-60.791002693899081
20
162.9237426128347
30
0
10
-60.807532837723208
20
162.98350374978853
30
0
10
-60.828242460815112
20
163.04150934453617
30
0
10
-60.854034556016536
20
163.09735015481294
30
0
0
SPLINE
5
231
100
AcDbEntity
8
0
100
AcDbSpline
70
1064
71
3
72
8
73
4
74
0
42
0.000000001
43
0.0000000001
44
0.0000000001
40
3
40
3
40
3
40
3
40
4
40
4
40
4
40
4
10
-60.854034556016536
20
163.09735015481294
30
0
10
-61.070099502527135
20
163.56516349156351
30
0
10
-61.653220749090671
20
164.0434978760878
30
0
10
-62.060927295651531
20
165.24894901493482
30
0
0
SPLINE
5
232
100
AcDbEntity
8
0
100
AcDbSpline
70
1064
71
3
72
8
73
4
74
0
42
0.000000001
43
0.0000000001
44
0.0000000001
40
4
40
4
40
4
40
4
40
5
40
5
40
5
40
5
10
-62.060927295651531
20
165.24894901493482
30
0
10
-62.202768260542918
20
165.66825496453475
30
0
10
-62.375568685125593
20
166.32985086101712
30
0
10
-62.893674393673145
20
166.52381467631088
30
0
0
SPLINE
5
233
100
AcDbEntity
8
0
100
AcDbSpline
70
1064
71
3
72
8
73
4
74
0
42
0.000000001
43
0.0000000001
44
0.0000000001
40
5
40
5
40
5
40
5
40
6
40
6
40
6
40
6
10
-62.893674393673145
20
166.52381467631088
30
0
10
-63.06003133419761
20
166.58609695677271
30
0
10
-63.212264446892696
20
166.58154304320533
30
0
10
-63.344131535606714
20
166.56799763959299
30
0
0
SPLINE
5
234
100
AcDbEntity
8
0
100
AcDbSpline
70
1064
71
3
72
8
73
4
74
0
42
0.000000001
43
0.0000000001
44
0.0000000001
40
6
40
6
40
6
40
6
40
7
40
7
40
7
40
7
10
-63.344131535606714
20
166.56799763959299
30
0
10
-64.279712710257428
20
166.47190956115935
30
0
10
-65.388694052085327
20
165.79999828688003
30
0
10
-65.819532612568878
20
165.52393432068101
30
0
0
SPLINE
5
235
100
AcDbEntity
8
0
100
AcDbSpline
70
1064
71
3
72
8
73
4
74
0
42
0.000000001
43
0.0000000001
44
0.0000000001
40
7
40
7
40
7
40
7
40
8
40
8
40
8
40
8
10
-65.819532612568878
20
165.52393432068101
30
0
10
-65.649944101621401
20
165.6690745564984
30
0
10
-63.930948724123517
20
167.16399990116329
30
0
10
-62.43787776601021
20
169.08743832645683
30
0
0
SPLINE
5
236
100
AcDbEntity
8
0
100
AcDbSpline
70
1064
71
3
72
11
73
7
74
0
42
0.000000001
43
0.0000000001
44
0.0000000001
40
8
40
8
40
8
40
8
40
9
40
9
40
9
40
10
40
10
40
10
40
10
10
-62.43787776601021
20
169.08743832645683
30
0
10
-62.498939832750757
20
168.00509216077288
30
0
10
-62.344778814984316
20
167.00629194149641
30
0
10
-61.681836666825625
20
166.53474396593822
30
0
10
-60.878087181707734
20
165.96304032088284
30
0
10
-59.570882524290134
20
166.33551384452474
30
0
10
-59.416444949661376
20
166.38146117552836
30
0
0
SPLINE
5
237
100
AcDbEntity
8
0
100
AcDbSpline
70
1064
71
3
72
8
73
4
74
0
42
0.000000001
43
0.0000000001
44
0.0000000001
40
10
40
10
40
10
40
10
40
11
40
11
40
11
40
11
10
-59.416444949661376
20
166.38146117552836
30
0
10
-58.164567910528326
20
166.75400139463903
30
0
10
-56.6408636761496
20
168.72630482021478
30
0
10
-56.30131905995956
20
169.05500113306545
30
0
0
SPLINE
5
238
100
AcDbEntity
8
0
100
AcDbSpline
70
1064
71
3
72
11
73
7
74
0
42
0.000000001
43
0.0000000001
44
0.0000000001
40
13
40
13
40
13
40
13
40
14
40
14
40
14
40
15
40
15
40
15
40
15
10
-71.020342750898095
20
160.78764407199998
30
0
10
-69.828124869553648
20
162.14885590002453
30
0
10
-68.660450526915355
20
162.79152014568538
30
0
10
-67.142533758455755
20
163.81842401090609
30
0
10
-65.556851890626263
20
164.89117244673565
30
0
10
-63.334963247133196
20
165.90105919161516
30
0
10
-62.977984373813776
20
165.44589570515811
30
0
0
SPLINE
5
239
100
AcDbEntity
8
0
100
AcDbSpline
70
1064
71
3
72
8
73
4
74
0
42
0.000000001
43
0.0000000001
44
0.0000000001
40
15
40
15
40
15
40
15
40
16
40
16
40
16
40
16
10
-62.977984373813776
20
165.44589570515811
30
0
10
-62.854542735121193
20
165.28852902225623
30
0
10
-62.983836159495574
20
164.99397083288741
30
0
10
-63.046279928549787
20
164.85868926168791
30
0
0
SPLINE
5
240
100
AcDbEntity
8
0
100
AcDbSpline
70
1064
71
3
72
11
73
7
74
0
42
0.000000001
43
0.0000000001
44
0.0000000001
40
0
40
0
40
0
40
0
40
1
40
1
40
1
40
2
40
2
40
2
40
2
10
-63.046279928549787
20
164.85868926168791
30
0
10
-64.154580063982138
20
162.4570397509261
30
0
10
-68.967334164468326
20
157.61108922944928
30
0
10
-69.871610939401904
20
156.76627990493202
30
0
10
-72.801807262373217
20
154.02877888457724
30
0
10
-75.997052066853968
20
152.07660119234816
30
0
10
-77.704177735349418
20
151.08074974026593
30
0
0
SPLINE
5
241
100
AcDbEntity
8
0
100
AcDbSpline
70
1064
71
3
72
8
73
4
74
0
42
0.000000001
43
0.0000000001
44
0.0000000001
40
2
40
2
40
2
40
2
40
3
40
3
40
3
40
3
10
-77.704177735349418
20
151.08074974026593
30
0
10
-76.854170205712762
20
155.33012797772201
30
0
10
-74.030659870184195
20
164.73165670191193
30
0
10
-69.717374254308282
20
169.20756038685255
30
0
0
SPLINE
5
242
100
AcDbEntity
8
0
100
AcDbSpline
70
1064
71
3
72
14
73
10
74
0
42
0.000000001
43
0.0000000001
44
0.0000000001
40
3
40
3
40
3
40
3
40
4
40
4
40
4
40
5
40
5
40
5
40
6
40
6
40
6
40
6
10
-69.717374254308282
20
169.20756038685255
30
0
10
-69.410436547348581
20
169.52604545008882
30
0
10
-69.173428126157688
20
169.73921069409059
30
0
10
-68.472741834871186
20
170.46861956308632
30
0
10
-66.9095946140894
20
172.09584120772504
30
0
10
-65.998596525585612
20
172.90349856272286
30
0
10
-64.824324417121375
20
174.08655700160367
30
0
10
-63.77091558558913
20
175.14784782061625
30
0
10
-63.313955469533063
20
175.69407133822395
30
0
10
-62.569217614875789
20
176.16058159266046
30
0
0
SPLINE
5
243
100
AcDbEntity
8
0
100
AcDbSpline
70
1064
71
3
72
8
73
4
74
0
42
0.000000001
43
0.0000000001
44
0.0000000001
40
6
40
6
40
6
40
6
40
7
40
7
40
7
40
7
10
-62.569217614875789
20
176.16058159266046
30
0
10
-62.296021477264709
20
176.33172762920921
30
0
10
-61.973973780613285
20
176.45232464622495
30
0
10
-61.865400735364595
20
176.35372647578777
30
0
0
SPLINE
5
244
100
AcDbEntity
8
0
100
AcDbSpline
70
1064
71
3
72
14
73
10
74
0
42
0.000000001
43
0.0000000001
44
0.0000000001
40
7
40
7
40
7
40
7
40
8
40
8
40
8
40
9
40
9
40
9
40
10
40
10
40
10
40
10
10
-61.865400735364595
20
176.35372647578777
30
0
10
-61.606825116938246
20
176.11894333717018
30
0
10
-62.586178498506264
20
174.58883987660357
30
0
10
-62.971144406670199
20
174.08114858803813
30
0
10
-66.143704744517862
20
169.89719044573064
30
0
10
-67.700529724033231
20
168.20109085439057
30
0
10
-69.81546577589566
20
166.05227936400496
30
0
10
-70.778487160591908
20
165.07383303457559
30
0
10
-72.92981843435075
20
164.15860162995543
30
0
10
-73.59967038693992
20
162.38368486838922
30
0
0
SPLINE
5
245
100
AcDbEntity
8
0
100
AcDbSpline
70
1064
71
3
72
14
73
10
74
0
42
0.000000001
43
0.0000000001
44
0.0000000001
40
10
40
10
40
10
40
10
40
11
40
11
40
11
40
12
40
12
40
12
40
13
40
13
40
13
40
13
10
-73.59967038693992
20
162.38368486838922
30
0
10
-73.670304224823411
20
162.19649924233281
30
0
10
-73.831633332961218
20
161.72334265667473
30
0
10
-73.748302195858201
20
161.14086178462017
30
0
10
-73.573849316066429
20
159.92144406051068
30
0
10
-72.812300820094549
20
159.17601523653957
30
0
10
-72.224239390097466
20
159.37433437074219
30
0
10
-71.963228662361843
20
159.46235820448081
30
0
10
-71.12423558268577
20
160.66900702125452
30
0
10
-71.020342750898095
20
160.78764407199998
30
0
0
ARC
5
246
100
AcDbEntity
8
0
100
AcDbCircle
10
-42.270733308889668
20
180.1595070639425
30
0
40
3.9999999999999734
100
AcDbArc
50
226.65111071459765
51
237.61318884367822
0
SPLINE
5
247
100
AcDbEntity
8
0
100
AcDbSpline
70
1064
71
3
72
18
73
14
74
0
42
0.000000001
43
0.0000000001
44
0.0000000001
40
0
40
0
40
0
40
0
40
0.029298335504019578
40
0.029298335504019578
40
0.05859667100803919
40
0.05859667100803919
40
0.08789500651205874
40
0.08789500651205874
40
0.11719334201607823
40
0.11719334201607823
40
0.13279204137521633
40
0.13279204137521633
40
0.14839074073435435
40
0.14839074073435435
40
0.14839074073435435
40
0.14839074073435435
10
-44.389606537716837
20
175.53066536122898
30
0
10
-44.309173063096345
20
175.58605624673561
30
0
10
-44.240327647982447
20
175.65662801135431
30
0
10
-44.133563140725407
20
175.82018875278422
30
0
10
-44.096664775462848
20
175.91161399975988
30
0
10
-44.059989618345945
20
176.10346214021831
30
0
10
-44.060563460983211
20
176.20205086091318
30
0
10
-44.099469388886412
20
176.39345907630869
30
0
10
-44.137429512276221
20
176.48444860414486
30
0
10
-44.220686248779053
20
176.60880884090915
30
0
10
-44.254027242141127
20
176.64889070140902
30
0
10
-44.328462410049561
20
176.72151027382768
30
0
10
-44.369355209263297
20
176.75385152228785
30
0
10
-44.413263012881039
20
176.78170208622191
30
0
0
SPLINE
5
248
100
AcDbEntity
8
0
100
AcDbSpline
70
1064
71
3
72
8
73
4
74
0
42
0.000000001
43
0.0000000001
44
0.0000000001
40
1.0963144114761803
40
1.0963144114761803
40
1.0963144114761803
40
1.0963144114761803
40
2
40
2
40
2
40
2
10
-44.389606537716837
20
175.53066536122898
30
0
10
-45.663976933530286
20
174.65306427510697
30
0
10
-47.127023554734286
20
173.8340695388537
30
0
10
-48.532354254309773
20
172.83718026068144
30
0
0
SPLINE
5
249
100
AcDbEntity
8
0
100
AcDbSpline
70
1064
71
3
72
11
73
7
74
0
42
0.000000001
43
0.0000000001
44
0.0000000001
40
2
40
2
40
2
40
2
40
3
40
3
40
3
40
3.0941103219438948
40
3.0941103219438948
40
3.0941103219438948
40
3.0941103219438948
10
-48.532354254309773
20
172.83718026068144
30
0
10
-48.103346748390869
20
173.8566373429407
30
0
10
-46.805214163285704
20
175.8779432361186
30
0
10
-46.518857406327676
20
176.43703979559632
30
0
10
-46.406183970372474
20
176.65702877387758
30
0
10
-46.297161491951719
20
176.86410337764812
30
0
10
-46.192375759525071
20
177.05963280959821
30
0
0
SPLINE
5
250
100
AcDbEntity
8
0
100
AcDbSpline
70
1064
71
3
72
16
73
12
74
0
42
0.000000001
43
0.0000000001
44
0.0000000001
40
0
40
0
40
0
40
0
40
0.029298335504019626
40
0.029298335504019626
40
0.058596671008039211
40
0.058596671008039211
40
0.08789500651205874
40
0.08789500651205874
40
0.11297146345808284
40
0.11297146345808284
40
0.13804792040410666
40
0.13804792040410666
40
0.13804792040410666
40
0.13804792040410666
10
-45.016489694470856
20
177.25075787038179
30
0
10
-45.087507619279172
20
177.31779628021258
30
0
10
-45.170940666171155
20
177.3703223863879
30
0
10
-45.353244612063186
20
177.44043691740075
30
0
10
-45.450372585977199
20
177.45735500910627
30
0
10
-45.645646450928616
20
177.45300830761181
30
0
10
-45.741925417384586
20
177.43178507124725
30
0
10
-45.908031743397082
20
177.35925921262037
30
0
10
-45.978508546640491
20
177.31323951295025
30
0
10
-46.101368915807122
20
177.19986724298167
30
0
10
-46.1528925534056
20
177.13330819159296
30
0
10
-46.192375759524715
20
177.05963280959907
30
0
0
ENDSEC
0
SECTION
2
OBJECTS
0
DICTIONARY
5
C
100
AcDbDictionary
3
ACAD_GROUP
350
D
3
ACAD_MLINESTYLE
350
17
0
DICTIONARY
5
D
100
AcDbDictionary
0
DICTIONARY
5
1A
330
C
100
AcDbDictionary
0
DICTIONARY
5
17
100
AcDbDictionary
0
ENDSEC
0
EOF
